<mxfile host="app.diagrams.net" modified="2024-02-19T02:29:41.165Z" agent="Mozilla/5.0 (X11; Linux x86_64) AppleWebKit/537.36 (KHTML, like Gecko) Chrome/121.0.0.0 Safari/537.36" etag="JBl5kIqFsCdSG61ztEQT" version="23.1.1" type="github">
  <diagram name="Page-1" id="197159a0-c6a4-9194-75a8-e4174976684c">
    <mxGraphModel dx="989" dy="514" grid="1" gridSize="10" guides="1" tooltips="1" connect="1" arrows="1" fold="1" page="1" pageScale="1.5" pageWidth="1169" pageHeight="826" background="none" math="0" shadow="0">
      <root>
        <mxCell id="0" style=";html=1;" />
        <mxCell id="1" style=";html=1;" parent="0" />
        <mxCell id="1257a543d1cacc4b-52" value="Title" style="text;strokeColor=none;fillColor=none;html=1;fontSize=24;fontStyle=1;verticalAlign=middle;align=center;" parent="1" vertex="1">
          <mxGeometry x="160" y="60" width="1420" height="40" as="geometry" />
        </mxCell>
        <mxCell id="6DIdfMdobOz-k1TR6Dgg-7" value="" style="edgeStyle=orthogonalEdgeStyle;rounded=0;orthogonalLoop=1;jettySize=auto;html=1;" edge="1" parent="1" source="6DIdfMdobOz-k1TR6Dgg-1" target="6DIdfMdobOz-k1TR6Dgg-3">
          <mxGeometry relative="1" as="geometry" />
        </mxCell>
        <mxCell id="6DIdfMdobOz-k1TR6Dgg-1" value="" style="fontColor=#0066CC;verticalAlign=top;verticalLabelPosition=bottom;labelPosition=center;align=center;html=1;outlineConnect=0;fillColor=#CCCCCC;strokeColor=#6881B3;gradientColor=none;gradientDirection=north;strokeWidth=2;shape=mxgraph.networks.modem;" vertex="1" parent="1">
          <mxGeometry x="610" y="250" width="100" height="30" as="geometry" />
        </mxCell>
        <mxCell id="6DIdfMdobOz-k1TR6Dgg-2" value="" style="fontColor=#0066CC;verticalAlign=top;verticalLabelPosition=bottom;labelPosition=center;align=center;html=1;outlineConnect=0;fillColor=#CCCCCC;strokeColor=#6881B3;gradientColor=none;gradientDirection=north;strokeWidth=2;shape=mxgraph.networks.pc;" vertex="1" parent="1">
          <mxGeometry x="561.4300000000001" y="690" width="57.14" height="40" as="geometry" />
        </mxCell>
        <mxCell id="6DIdfMdobOz-k1TR6Dgg-8" value="" style="edgeStyle=orthogonalEdgeStyle;rounded=0;orthogonalLoop=1;jettySize=auto;html=1;entryX=0.5;entryY=0;entryDx=0;entryDy=0;entryPerimeter=0;" edge="1" parent="1" source="6DIdfMdobOz-k1TR6Dgg-3" target="6DIdfMdobOz-k1TR6Dgg-4">
          <mxGeometry relative="1" as="geometry">
            <Array as="points">
              <mxPoint x="650" y="550" />
              <mxPoint x="590" y="550" />
            </Array>
          </mxGeometry>
        </mxCell>
        <mxCell id="6DIdfMdobOz-k1TR6Dgg-9" style="edgeStyle=orthogonalEdgeStyle;rounded=0;orthogonalLoop=1;jettySize=auto;html=1;" edge="1" parent="1" source="6DIdfMdobOz-k1TR6Dgg-3" target="6DIdfMdobOz-k1TR6Dgg-5">
          <mxGeometry relative="1" as="geometry">
            <mxPoint x="530" y="480" as="targetPoint" />
            <Array as="points">
              <mxPoint x="380" y="495" />
            </Array>
          </mxGeometry>
        </mxCell>
        <mxCell id="6DIdfMdobOz-k1TR6Dgg-10" value="" style="edgeStyle=orthogonalEdgeStyle;rounded=0;orthogonalLoop=1;jettySize=auto;html=1;" edge="1" parent="1" source="6DIdfMdobOz-k1TR6Dgg-17" target="6DIdfMdobOz-k1TR6Dgg-6">
          <mxGeometry relative="1" as="geometry">
            <mxPoint x="920" y="490" as="sourcePoint" />
          </mxGeometry>
        </mxCell>
        <mxCell id="6DIdfMdobOz-k1TR6Dgg-12" style="edgeStyle=orthogonalEdgeStyle;rounded=0;orthogonalLoop=1;jettySize=auto;html=1;" edge="1" parent="1" source="6DIdfMdobOz-k1TR6Dgg-3" target="6DIdfMdobOz-k1TR6Dgg-11">
          <mxGeometry relative="1" as="geometry">
            <Array as="points">
              <mxPoint x="680" y="550" />
              <mxPoint x="730" y="550" />
            </Array>
          </mxGeometry>
        </mxCell>
        <mxCell id="6DIdfMdobOz-k1TR6Dgg-18" style="edgeStyle=orthogonalEdgeStyle;rounded=0;orthogonalLoop=1;jettySize=auto;html=1;" edge="1" parent="1" source="6DIdfMdobOz-k1TR6Dgg-3" target="6DIdfMdobOz-k1TR6Dgg-17">
          <mxGeometry relative="1" as="geometry" />
        </mxCell>
        <mxCell id="6DIdfMdobOz-k1TR6Dgg-3" value="" style="fontColor=#0066CC;verticalAlign=top;verticalLabelPosition=bottom;labelPosition=center;align=center;html=1;outlineConnect=0;fillColor=#CCCCCC;strokeColor=#6881B3;gradientColor=none;gradientDirection=north;strokeWidth=2;shape=mxgraph.networks.router;" vertex="1" parent="1">
          <mxGeometry x="610" y="480" width="100" height="30" as="geometry" />
        </mxCell>
        <mxCell id="6DIdfMdobOz-k1TR6Dgg-13" value="" style="edgeStyle=orthogonalEdgeStyle;rounded=0;orthogonalLoop=1;jettySize=auto;html=1;" edge="1" parent="1" source="6DIdfMdobOz-k1TR6Dgg-4" target="6DIdfMdobOz-k1TR6Dgg-2">
          <mxGeometry relative="1" as="geometry" />
        </mxCell>
        <mxCell id="6DIdfMdobOz-k1TR6Dgg-4" value="" style="fontColor=#0066CC;verticalAlign=top;verticalLabelPosition=bottom;labelPosition=center;align=center;html=1;outlineConnect=0;fillColor=#CCCCCC;strokeColor=#6881B3;gradientColor=none;gradientDirection=north;strokeWidth=2;shape=mxgraph.networks.switch;" vertex="1" parent="1">
          <mxGeometry x="540" y="590" width="100" height="30" as="geometry" />
        </mxCell>
        <mxCell id="6DIdfMdobOz-k1TR6Dgg-21" value="" style="edgeStyle=orthogonalEdgeStyle;rounded=0;orthogonalLoop=1;jettySize=auto;html=1;" edge="1" parent="1" source="6DIdfMdobOz-k1TR6Dgg-5" target="6DIdfMdobOz-k1TR6Dgg-20">
          <mxGeometry relative="1" as="geometry" />
        </mxCell>
        <mxCell id="6DIdfMdobOz-k1TR6Dgg-5" value="" style="fontColor=#0066CC;verticalAlign=top;verticalLabelPosition=bottom;labelPosition=center;align=center;html=1;outlineConnect=0;fillColor=#CCCCCC;strokeColor=#6881B3;gradientColor=none;gradientDirection=north;strokeWidth=2;shape=mxgraph.networks.wireless_hub;" vertex="1" parent="1">
          <mxGeometry x="350" y="535" width="100" height="85" as="geometry" />
        </mxCell>
        <mxCell id="6DIdfMdobOz-k1TR6Dgg-6" value="" style="fontColor=#0066CC;verticalAlign=top;verticalLabelPosition=bottom;labelPosition=center;align=center;html=1;outlineConnect=0;fillColor=#CCCCCC;strokeColor=#6881B3;gradientColor=none;gradientDirection=north;strokeWidth=2;shape=mxgraph.networks.server;" vertex="1" parent="1">
          <mxGeometry x="852" y="690" width="36" height="40" as="geometry" />
        </mxCell>
        <mxCell id="6DIdfMdobOz-k1TR6Dgg-19" style="edgeStyle=orthogonalEdgeStyle;rounded=0;orthogonalLoop=1;jettySize=auto;html=1;exitX=0.5;exitY=1;exitDx=0;exitDy=0;exitPerimeter=0;" edge="1" parent="1" source="6DIdfMdobOz-k1TR6Dgg-11" target="6DIdfMdobOz-k1TR6Dgg-16">
          <mxGeometry relative="1" as="geometry" />
        </mxCell>
        <mxCell id="6DIdfMdobOz-k1TR6Dgg-11" value="" style="fontColor=#0066CC;verticalAlign=top;verticalLabelPosition=bottom;labelPosition=center;align=center;html=1;outlineConnect=0;fillColor=#CCCCCC;strokeColor=#6881B3;gradientColor=none;gradientDirection=north;strokeWidth=2;shape=mxgraph.networks.switch;" vertex="1" parent="1">
          <mxGeometry x="680" y="590" width="100" height="30" as="geometry" />
        </mxCell>
        <mxCell id="6DIdfMdobOz-k1TR6Dgg-16" value="" style="fontColor=#0066CC;verticalAlign=top;verticalLabelPosition=bottom;labelPosition=center;align=center;html=1;outlineConnect=0;fillColor=#CCCCCC;strokeColor=#6881B3;gradientColor=none;gradientDirection=north;strokeWidth=2;shape=mxgraph.networks.pc;" vertex="1" parent="1">
          <mxGeometry x="701.4300000000001" y="690" width="57.14" height="40" as="geometry" />
        </mxCell>
        <mxCell id="6DIdfMdobOz-k1TR6Dgg-17" value="" style="fontColor=#0066CC;verticalAlign=top;verticalLabelPosition=bottom;labelPosition=center;align=center;html=1;outlineConnect=0;fillColor=#CCCCCC;strokeColor=#6881B3;gradientColor=none;gradientDirection=north;strokeWidth=2;shape=mxgraph.networks.switch;" vertex="1" parent="1">
          <mxGeometry x="820" y="590" width="100" height="30" as="geometry" />
        </mxCell>
        <mxCell id="6DIdfMdobOz-k1TR6Dgg-20" value="" style="fontColor=#0066CC;verticalAlign=top;verticalLabelPosition=bottom;labelPosition=center;align=center;html=1;outlineConnect=0;fillColor=#CCCCCC;strokeColor=#6881B3;gradientColor=none;gradientDirection=north;strokeWidth=2;shape=mxgraph.networks.mobile;" vertex="1" parent="1">
          <mxGeometry x="387.5" y="685" width="25" height="50" as="geometry" />
        </mxCell>
        <mxCell id="6DIdfMdobOz-k1TR6Dgg-22" value="" style="fontColor=#0066CC;verticalAlign=top;verticalLabelPosition=bottom;labelPosition=center;align=center;html=1;outlineConnect=0;fillColor=#CCCCCC;strokeColor=#6881B3;gradientColor=none;gradientDirection=north;strokeWidth=2;shape=mxgraph.networks.switch;" vertex="1" parent="1">
          <mxGeometry x="740" y="350" width="100" height="30" as="geometry" />
        </mxCell>
        <mxCell id="6DIdfMdobOz-k1TR6Dgg-24" value="" style="fontColor=#0066CC;verticalAlign=top;verticalLabelPosition=bottom;labelPosition=center;align=center;html=1;outlineConnect=0;fillColor=#CCCCCC;strokeColor=#6881B3;gradientColor=none;gradientDirection=north;strokeWidth=2;shape=mxgraph.networks.security_camera;" vertex="1" parent="1">
          <mxGeometry x="240" y="660" width="100" height="75" as="geometry" />
        </mxCell>
        <mxCell id="6DIdfMdobOz-k1TR6Dgg-25" value="" style="fontColor=#0066CC;verticalAlign=top;verticalLabelPosition=bottom;labelPosition=center;align=center;html=1;outlineConnect=0;fillColor=#CCCCCC;strokeColor=#6881B3;gradientColor=none;gradientDirection=north;strokeWidth=2;shape=mxgraph.networks.video_projector_screen;" vertex="1" parent="1">
          <mxGeometry x="888" y="330" width="62" height="70" as="geometry" />
        </mxCell>
        <mxCell id="6DIdfMdobOz-k1TR6Dgg-26" style="edgeStyle=orthogonalEdgeStyle;rounded=0;orthogonalLoop=1;jettySize=auto;html=1;" edge="1" parent="1" source="6DIdfMdobOz-k1TR6Dgg-22" target="6DIdfMdobOz-k1TR6Dgg-3">
          <mxGeometry relative="1" as="geometry">
            <mxPoint x="640" y="390" as="sourcePoint" />
            <mxPoint x="640" y="490" as="targetPoint" />
            <Array as="points">
              <mxPoint x="690" y="430" />
              <mxPoint x="690" y="430" />
            </Array>
          </mxGeometry>
        </mxCell>
      </root>
    </mxGraphModel>
  </diagram>
</mxfile>
